<svg width="13" height="10" viewBox="0 0 13 10" fill="none" xmlns="http://www.w3.org/2000/svg">
<path d="M7.01179 0.241678C6.93369 0.319147 6.87169 0.411314 6.82938 0.512863C6.78708 0.614412 6.76529 0.723334 6.76529 0.833344C6.76529 0.943354 6.78708 1.05227 6.82938 1.15382C6.87169 1.25537 6.93369 1.34754 7.01179 1.42501L9.75346 4.16668L1.42013 4.16668C1.19911 4.16668 0.98715 4.25448 0.83087 4.41076C0.67459 4.56704 0.586792 4.779 0.586792 5.00001C0.586792 5.22102 0.67459 5.43299 0.83087 5.58927C0.98715 5.74555 1.19911 5.83334 1.42013 5.83334L9.75346 5.83334L7.01179 8.57501C6.93369 8.65248 6.87169 8.74465 6.82938 8.8462C6.78708 8.94775 6.76529 9.05667 6.76529 9.16668C6.76529 9.27669 6.78708 9.38561 6.82938 9.48716C6.87169 9.58871 6.93369 9.68088 7.01179 9.75834C7.16793 9.91355 7.37914 10.0007 7.59929 10.0007C7.81945 10.0007 8.03066 9.91355 8.18679 9.75834L11.7618 6.17501C12.0748 5.86389 12.2516 5.44132 12.2535 5.00001C12.2494 4.56159 12.0728 4.14243 11.7618 3.83334L8.18679 0.25001C8.03176 0.093688 7.82117 0.00506878 7.60101 0.00350761C7.38086 0.0019455 7.16903 0.0875711 7.01179 0.241678Z" fill="black"/>
</svg>
