<svg width="40" height="40" viewBox="0 0 40 40" fill="none" xmlns="http://www.w3.org/2000/svg">
<g clip-path="url(#clip0_149_2838)">
<path d="M20.0001 40C31.0458 40 40 31.0458 40 20.0001C40 8.95447 31.0458 -0.00012207 20.0001 -0.00012207C8.95447 -0.00012207 -0.00012207 8.95447 -0.00012207 20.0001C0.0123291 31.0406 8.95923 39.9875 20.0001 40ZM20.0001 2.00012C29.9413 2.00012 38.0001 10.059 38.0001 20.0001C38.0001 29.9413 29.9413 38.0001 20.0001 38.0001C10.059 38.0001 2.00012 29.9413 2.00012 20.0001C2.01147 10.0637 10.0637 2.01147 20.0001 2.00012Z" fill="#989898"/>
<path d="M22.3412 27.7528C22.7572 28.1164 23.3889 28.0739 23.7526 27.6583C24.1158 27.2423 24.0734 26.6105 23.6577 26.2469L16.5181 20.0001L23.6581 13.7529C24.0741 13.3892 24.1162 12.7575 23.7529 12.3419C23.3893 11.9258 22.7576 11.8834 22.3416 12.247L14.3417 19.2471C14.1245 19.4368 14 19.7115 14 20.0001C14 20.2886 14.1245 20.5629 14.3417 20.753L22.3412 27.7528Z" fill="#989898"/>
</g>
<defs>
<clipPath id="clip0_149_2838">
<rect width="40" height="40" fill="white" transform="matrix(-1 0 0 -1 40 40)"/>
</clipPath>
</defs>
</svg>
