<svg width="16" height="16" viewBox="0 0 16 16" fill="none" xmlns="http://www.w3.org/2000/svg">
    <path d="M7.99992 14.6667C7.84436 14.6667 7.71103 14.6222 7.59992 14.5333C7.48881 14.4444 7.40547 14.3278 7.34992 14.1833C7.13881 13.5611 6.87214 12.9778 6.54992 12.4333C6.23881 11.8889 5.79992 11.25 5.23325 10.5167C4.66659 9.78333 4.20547 9.08333 3.84992 8.41666C3.50547 7.74999 3.33325 6.94444 3.33325 5.99999C3.33325 4.69999 3.78325 3.59999 4.68325 2.69999C5.59436 1.78888 6.69992 1.33333 7.99992 1.33333C9.29992 1.33333 10.3999 1.78888 11.2999 2.69999C12.211 3.59999 12.6666 4.69999 12.6666 5.99999C12.6666 7.01111 12.4721 7.85555 12.0833 8.53333C11.7055 9.19999 11.2666 9.8611 10.7666 10.5167C10.1666 11.3167 9.71103 11.9833 9.39992 12.5167C9.09992 13.0389 8.84992 13.5944 8.64992 14.1833C8.59436 14.3389 8.50548 14.4611 8.38325 14.55C8.27214 14.6278 8.14436 14.6667 7.99992 14.6667ZM7.99992 12.2833C8.18881 11.9055 8.39992 11.5333 8.63325 11.1667C8.8777 10.8 9.23325 10.3111 9.69992 9.69999C10.1777 9.07777 10.5666 8.50555 10.8666 7.98333C11.1777 7.44999 11.3333 6.78888 11.3333 5.99999C11.3333 5.07777 11.0055 4.29444 10.3499 3.64999C9.70547 2.99444 8.92214 2.66666 7.99992 2.66666C7.0777 2.66666 6.28881 2.99444 5.63325 3.64999C4.98881 4.29444 4.66659 5.07777 4.66659 5.99999C4.66659 6.78888 4.81659 7.44999 5.11659 7.98333C5.4277 8.50555 5.82214 9.07777 6.29992 9.69999C6.76659 10.3111 7.11659 10.8 7.34992 11.1667C7.59436 11.5333 7.81103 11.9055 7.99992 12.2833ZM7.99992 7.66666C8.46659 7.66666 8.86103 7.50555 9.18325 7.18333C9.50547 6.86111 9.66659 6.46666 9.66659 5.99999C9.66659 5.53333 9.50547 5.13888 9.18325 4.81666C8.86103 4.49444 8.46659 4.33333 7.99992 4.33333C7.53325 4.33333 7.13881 4.49444 6.81659 4.81666C6.49436 5.13888 6.33325 5.53333 6.33325 5.99999C6.33325 6.46666 6.49436 6.86111 6.81659 7.18333C7.13881 7.50555 7.53325 7.66666 7.99992 7.66666Z" fill="white"/>
</svg>