<svg width="130" height="131" viewBox="0 0 130 131" fill="none" xmlns="http://www.w3.org/2000/svg">
<g clip-path="url(#clip0_2350_4819)">
<path d="M111.234 130.499H18.8287C15.5815 130.499 12.9492 127.866 12.9492 124.619V48.6616L59.902 2.59547C62.7505 -0.19849 67.3119 -0.19849 70.1604 2.59547L117.113 48.6616V124.618C117.113 127.866 114.481 130.499 111.234 130.499Z" fill="url(#paint0_linear_2350_4819)"/>
<path d="M110.148 124.56C110.148 127.84 107.489 130.499 104.209 130.499H19.9136V17.1699H104.209C107.489 17.1699 110.148 19.829 110.148 23.1089V124.56Z" fill="url(#paint1_linear_2350_4819)"/>
<path d="M112.641 123.63V57.3609L93.4276 38.1473C92.6342 37.0603 91.5035 36.245 90.1874 35.8483L77.9106 32.1508C69.5109 29.6216 60.5518 29.6216 52.152 32.1508L39.8753 35.8483C38.0255 36.4057 36.5368 37.7883 35.8455 39.5934L29.9739 54.9269C25.9402 65.4611 28.7599 77.2905 36.871 84.8819L82.4879 130.499H105.773C109.567 130.499 112.641 127.423 112.641 123.63Z" fill="url(#paint2_linear_2350_4819)"/>
<path d="M65.0317 96.2854L15.0489 129.12C14.9616 129.047 14.8763 128.973 14.793 128.893C13.6584 127.822 12.9492 126.304 12.9492 124.619V48.6602L59.3932 91.1299L65.0317 96.2854Z" fill="url(#paint3_linear_2350_4819)"/>
<path d="M117.113 48.6602V124.619C117.113 126.303 116.404 127.822 115.269 128.893C115.186 128.973 115.102 129.047 115.014 129.12L65.0317 96.2854L70.6692 91.1299L117.113 48.6602Z" fill="url(#paint4_linear_2350_4819)"/>
<path d="M115.269 128.892C115.186 128.973 115.102 129.047 115.013 129.119C113.992 129.98 112.675 130.499 111.233 130.499H18.8297C17.3876 130.499 16.0704 129.98 15.0489 129.119C14.9616 129.047 14.8763 128.973 14.793 128.892L55.2235 93.6986C56.4951 92.5917 57.9054 91.7358 59.3932 91.1298C63.0014 89.6599 67.0609 89.6599 70.6692 91.1298C72.1579 91.7358 73.5683 92.5917 74.8398 93.6986L115.269 128.892Z" fill="url(#paint5_linear_2350_4819)"/>
<path d="M12.9492 104.787V124.62C12.9492 126.304 13.6584 127.823 14.793 128.893C14.8763 128.974 14.9616 129.048 15.0489 129.12C16.0705 129.981 17.3876 130.5 18.8297 130.5H111.233C112.675 130.5 113.993 129.981 115.014 129.12C115.102 129.048 115.187 128.973 115.269 128.893C116.404 127.823 117.113 126.304 117.113 124.62V104.787H12.9492Z" fill="url(#paint6_linear_2350_4819)"/>
<path d="M115.469 128.695C115.474 128.689 115.48 128.683 115.486 128.676C115.518 128.643 115.549 128.609 115.581 128.574C115.607 128.544 115.635 128.515 115.662 128.485C115.671 128.475 115.679 128.465 115.688 128.455C115.697 128.445 115.705 128.434 115.714 128.423C115.758 128.372 115.802 128.319 115.844 128.266C115.855 128.253 115.865 128.239 115.876 128.225C115.908 128.185 115.938 128.144 115.968 128.102C115.984 128.081 116.001 128.059 116.016 128.037C116.028 128.021 116.04 128.004 116.052 127.988C116.095 127.926 116.137 127.864 116.178 127.8C116.19 127.781 116.202 127.762 116.215 127.742C116.254 127.68 116.291 127.618 116.327 127.555C116.34 127.533 116.352 127.511 116.365 127.489C116.4 127.427 116.433 127.365 116.465 127.302C116.477 127.278 116.49 127.253 116.503 127.228C116.534 127.167 116.563 127.105 116.591 127.042C116.603 127.015 116.615 126.988 116.627 126.961C116.655 126.9 116.68 126.836 116.704 126.773C116.715 126.745 116.727 126.716 116.738 126.689C116.744 126.673 116.749 126.657 116.755 126.642C116.772 126.593 116.789 126.546 116.806 126.497C116.815 126.468 116.825 126.439 116.835 126.409C116.846 126.374 116.856 126.339 116.866 126.306C116.875 126.275 116.884 126.245 116.893 126.215C116.901 126.184 116.911 126.154 116.919 126.122C116.931 126.072 116.943 126.021 116.955 125.969C116.959 125.955 116.962 125.94 116.966 125.925C116.973 125.894 116.981 125.863 116.988 125.832C116.994 125.802 116.999 125.773 117.004 125.743C117.012 125.704 117.02 125.663 117.027 125.623C117.032 125.594 117.038 125.565 117.042 125.536C117.052 125.471 117.06 125.404 117.068 125.338C117.069 125.329 117.07 125.32 117.072 125.31C117.074 125.286 117.078 125.261 117.081 125.237C117.085 125.194 117.088 125.151 117.091 125.109C117.095 125.061 117.1 125.013 117.103 124.966C117.103 124.954 117.105 124.943 117.105 124.932C117.111 124.829 117.113 124.725 117.113 124.62V61.8344L110.233 54.9531L70.669 91.1308C67.0608 89.6609 63.0012 89.6609 59.393 91.1308L28.2379 62.6417C27.5972 70.8837 30.7016 79.1099 36.8707 84.8833L82.4875 130.5H111.232C111.388 130.5 111.541 130.491 111.693 130.479C111.73 130.476 111.769 130.474 111.807 130.471C111.927 130.459 112.046 130.442 112.164 130.423C112.184 130.42 112.204 130.418 112.223 130.415C112.264 130.408 112.305 130.401 112.345 130.393C112.356 130.391 112.367 130.387 112.379 130.385C112.504 130.36 112.628 130.333 112.75 130.301C112.786 130.291 112.82 130.281 112.856 130.271C112.994 130.231 113.131 130.188 113.265 130.138C113.284 130.131 113.301 130.123 113.32 130.116C113.455 130.065 113.588 130.009 113.718 129.949C113.732 129.942 113.746 129.936 113.76 129.929C113.899 129.862 114.035 129.79 114.168 129.713C114.183 129.705 114.197 129.697 114.211 129.689C114.298 129.637 114.382 129.581 114.465 129.525C114.512 129.493 114.562 129.465 114.609 129.432C114.615 129.428 114.62 129.424 114.625 129.42H114.626C114.751 129.331 114.873 129.237 114.99 129.137C115.085 129.059 115.178 128.979 115.267 128.894C115.267 128.894 115.268 128.893 115.269 128.893L115.272 128.89C115.339 128.827 115.405 128.762 115.469 128.695Z" fill="url(#paint7_linear_2350_4819)"/>
<path d="M90.187 35.8483L77.9103 32.1508C69.5105 29.6216 60.5514 29.6216 52.1517 32.1508L39.8759 35.8483C38.0252 36.4057 36.5365 37.7883 35.8462 39.5934L29.9746 54.9269C25.6254 66.2823 29.2357 79.1452 38.8573 86.5789L54.9109 98.9826C60.8718 103.589 69.1912 103.589 75.152 98.9826L91.2046 86.5789C100.826 79.1452 104.437 66.2813 100.088 54.9269L94.2168 39.5934C93.5255 37.7883 92.0368 36.4057 90.187 35.8483Z" fill="url(#paint8_linear_2350_4819)"/>
<path d="M75.1523 98.9831L91.2049 86.5794C100.827 79.1457 104.437 66.2828 100.089 54.9274L94.2171 39.5949C93.5258 37.7898 92.037 36.4062 90.1873 35.8488L77.9105 32.1523C73.7112 30.8867 69.371 30.2539 65.0317 30.2539V102.438C68.6013 102.438 72.1719 101.286 75.1523 98.9831Z" fill="url(#paint9_linear_2350_4819)"/>
<path d="M86.6176 40.1762L76.0835 37.0033C68.8749 34.8322 61.1873 34.8322 53.9788 37.0033L43.4446 40.1762C41.8567 40.6542 40.5793 41.8414 39.9861 43.3906L34.9477 56.5481C31.2155 66.2928 34.3139 77.3308 42.5708 83.7101L56.3462 94.3544C61.462 98.3068 68.6002 98.3068 73.716 94.3544L87.4914 83.7101C95.7483 77.3308 98.8467 66.2928 95.1145 56.5481L90.0761 43.3906C89.483 41.8414 88.2065 40.6542 86.6176 40.1762Z" fill="url(#paint10_linear_2350_4819)"/>
<path d="M91.7303 65.9621C91.7303 65.2172 91.6986 64.4803 91.6381 63.7513L81.3559 53.4691C80.2659 52.3801 78.5004 52.3801 77.4104 53.4691L62.4865 68.394C61.3965 69.483 59.6311 69.483 58.542 68.394L52.6506 62.5026C51.5616 61.4136 49.7952 61.4136 48.7062 62.5026L46.0887 65.12C44.9997 66.209 44.9997 67.9745 46.0887 69.0645L69.338 92.3138C82.0353 90.2538 91.7303 79.2406 91.7303 65.9621Z" fill="url(#paint11_linear_2350_4819)"/>
<path d="M58.0818 81.0566C59.4248 82.3995 61.6038 82.3995 62.9477 81.0566L83.9733 60.031C85.0623 58.941 85.0623 57.1755 83.9733 56.0855L81.3559 53.4691C80.2669 52.3801 78.5004 52.3801 77.4114 53.4691L62.4865 68.394C61.3975 69.483 59.6311 69.483 58.542 68.394L52.6506 62.5026C51.5616 61.4136 49.7952 61.4136 48.7062 62.5026L46.0887 65.12C44.9997 66.209 44.9997 67.9745 46.0887 69.0645L58.0818 81.0566Z" fill="url(#paint12_linear_2350_4819)"/>
<path d="M73.7161 94.3527L87.4915 83.7084C95.7484 77.3291 98.8469 66.2911 95.1147 56.5464L90.0762 43.3889C89.4831 41.8397 88.2066 40.6525 86.6177 40.1745L76.0836 37.0016C72.4793 35.9156 68.755 35.373 65.0317 35.373V97.3162C68.0955 97.3172 71.1582 96.3284 73.7161 94.3527Z" fill="url(#paint13_linear_2350_4819)"/>
</g>
<defs>
<linearGradient id="paint0_linear_2350_4819" x1="33.6896" y1="9.25873" x2="48.7765" y2="46.7824" gradientUnits="userSpaceOnUse">
<stop stop-color="#45425A"/>
<stop offset="1" stop-color="#2D3251"/>
</linearGradient>
<linearGradient id="paint1_linear_2350_4819" x1="65.0311" y1="42.3827" x2="65.0311" y2="89.5798" gradientUnits="userSpaceOnUse">
<stop stop-color="#ECF7FF"/>
<stop offset="1" stop-color="#C2E0FF"/>
</linearGradient>
<linearGradient id="paint2_linear_2350_4819" x1="95.478" y1="91.801" x2="61.6428" y2="57.9658" gradientUnits="userSpaceOnUse">
<stop offset="0.0029" stop-color="#C2E0FF" stop-opacity="0"/>
<stop offset="0.0763" stop-color="#BFDCFD" stop-opacity="0.07451"/>
<stop offset="1" stop-color="#9EB2E7"/>
</linearGradient>
<linearGradient id="paint3_linear_2350_4819" x1="2.43611" y1="75.1145" x2="42.9459" y2="115.624" gradientUnits="userSpaceOnUse">
<stop stop-color="#FFD459"/>
<stop offset="0.2296" stop-color="#FFD355"/>
<stop offset="0.4362" stop-color="#FFCF4A"/>
<stop offset="0.634" stop-color="#FFC838"/>
<stop offset="0.825" stop-color="#FFBF1F"/>
<stop offset="1" stop-color="#FFB400"/>
</linearGradient>
<linearGradient id="paint4_linear_2350_4819" x1="115.862" y1="82.1529" x2="85.1713" y2="118.518" gradientUnits="userSpaceOnUse">
<stop stop-color="#FFD459"/>
<stop offset="0.2296" stop-color="#FFD355"/>
<stop offset="0.4362" stop-color="#FFCF4A"/>
<stop offset="0.634" stop-color="#FFC838"/>
<stop offset="0.825" stop-color="#FFBF1F"/>
<stop offset="1" stop-color="#FFB400"/>
</linearGradient>
<linearGradient id="paint5_linear_2350_4819" x1="65.0313" y1="100.709" x2="65.0313" y2="137.076" gradientUnits="userSpaceOnUse">
<stop stop-color="#FFD459"/>
<stop offset="0.2296" stop-color="#FFD355"/>
<stop offset="0.4362" stop-color="#FFCF4A"/>
<stop offset="0.634" stop-color="#FFC838"/>
<stop offset="0.825" stop-color="#FFBF1F"/>
<stop offset="1" stop-color="#FFB400"/>
</linearGradient>
<linearGradient id="paint6_linear_2350_4819" x1="65.0313" y1="121.045" x2="65.0313" y2="139.888" gradientUnits="userSpaceOnUse">
<stop stop-color="#E58200" stop-opacity="0"/>
<stop offset="0.0396" stop-color="#E27F04" stop-opacity="0.039216"/>
<stop offset="0.4671" stop-color="#C15D2F" stop-opacity="0.466667"/>
<stop offset="0.8016" stop-color="#AD4949" stop-opacity="0.8"/>
<stop offset="1" stop-color="#A64153"/>
</linearGradient>
<linearGradient id="paint7_linear_2350_4819" x1="102.136" y1="98.5135" x2="44.0425" y2="40.4203" gradientUnits="userSpaceOnUse">
<stop stop-color="#E58200" stop-opacity="0"/>
<stop offset="0.0396" stop-color="#E27F04" stop-opacity="0.039216"/>
<stop offset="0.4671" stop-color="#C15D2F" stop-opacity="0.466667"/>
<stop offset="0.8016" stop-color="#AD4949" stop-opacity="0.8"/>
<stop offset="1" stop-color="#A64153"/>
</linearGradient>
<linearGradient id="paint8_linear_2350_4819" x1="49.2584" y1="45.5838" x2="79.2806" y2="75.606" gradientUnits="userSpaceOnUse">
<stop stop-color="#ECF7FF"/>
<stop offset="1" stop-color="#C2E0FF"/>
</linearGradient>
<linearGradient id="paint9_linear_2350_4819" x1="97.1394" y1="66.3459" x2="51.8032" y2="66.3459" gradientUnits="userSpaceOnUse">
<stop offset="0.0029" stop-color="#C2E0FF" stop-opacity="0"/>
<stop offset="0.0763" stop-color="#BFDCFD" stop-opacity="0.07451"/>
<stop offset="1" stop-color="#9EB2E7"/>
</linearGradient>
<linearGradient id="paint10_linear_2350_4819" x1="51.9338" y1="48.9684" x2="90.0765" y2="87.111" gradientUnits="userSpaceOnUse">
<stop stop-color="#00C6F6"/>
<stop offset="0.8567" stop-color="#0B9CFD"/>
<stop offset="1" stop-color="#0D94FE"/>
</linearGradient>
<linearGradient id="paint11_linear_2350_4819" x1="80.2224" y1="77.7663" x2="69.4438" y2="66.9877" gradientUnits="userSpaceOnUse">
<stop stop-color="#0D94FE" stop-opacity="0"/>
<stop offset="0.5142" stop-color="#0681CD" stop-opacity="0.513725"/>
<stop offset="1" stop-color="#0070A2"/>
</linearGradient>
<linearGradient id="paint12_linear_2350_4819" x1="63.3608" y1="60.9047" x2="73.3204" y2="70.8644" gradientUnits="userSpaceOnUse">
<stop stop-color="#F9F9F9"/>
<stop offset="1" stop-color="#E6E6E6"/>
</linearGradient>
<linearGradient id="paint13_linear_2350_4819" x1="81.3001" y1="70.5428" x2="37.6962" y2="56.225" gradientUnits="userSpaceOnUse">
<stop stop-color="#0D94FE" stop-opacity="0"/>
<stop offset="0.5142" stop-color="#0681CD" stop-opacity="0.513725"/>
<stop offset="1" stop-color="#0070A2"/>
</linearGradient>
<clipPath id="clip0_2350_4819">
<rect width="130" height="130" fill="white" transform="translate(0 0.5)"/>
</clipPath>
</defs>
</svg>
