<svg width="60" height="60" viewBox="0 0 60 60" fill="none" xmlns="http://www.w3.org/2000/svg">
<g clip-path="url(#clip0_1236_3353)">
<path d="M47.6893 21.3613H31.043C24.2441 21.3613 18.7324 26.8729 18.7324 33.6719V42.4041C18.7324 49.203 24.244 54.7146 31.043 54.7146H40.5974C40.767 54.7146 40.92 54.8082 41.0052 54.9549C42.3807 57.3241 45.2439 59.0121 49.0043 59.984C49.4693 60.1041 49.7814 59.5252 49.434 59.1937C48.0293 57.8527 47.3393 56.5278 47.2234 55.2303C47.1987 54.9542 47.4122 54.7146 47.6895 54.7146C54.4883 54.7146 60 49.2031 60 42.4041V33.672C59.9999 26.8729 54.4882 21.3613 47.6893 21.3613Z" fill="url(#paint0_linear_1236_3353)"/>
<path d="M47.6894 21.3613H36.6455V54.7145H40.5974C40.767 54.7145 40.92 54.808 41.0052 54.9548C42.3808 57.3239 45.2439 59.012 49.0043 59.9839C49.4693 60.104 49.7814 59.5251 49.4341 59.1936C48.0293 57.8526 47.3393 56.5277 47.2234 55.2302C47.1987 54.9541 47.4122 54.7145 47.6895 54.7145C54.4885 54.7145 60 49.2028 60 42.404V33.6719C59.9999 26.8729 54.4882 21.3613 47.6894 21.3613Z" fill="url(#paint1_linear_1236_3353)"/>
<path d="M60 33.873V42.4031C60 49.202 54.4884 54.7137 47.6895 54.7137C47.4122 54.7137 47.1988 54.9532 47.2234 55.2293C47.3394 56.5267 48.0293 57.8517 49.434 59.1927C49.7814 59.5243 49.4693 60.1032 49.0043 59.983C45.244 59.0112 42.3807 57.3231 41.0052 54.9539C40.9201 54.8073 40.767 54.7137 40.5974 54.7137H31.043C24.2441 54.7137 18.7324 49.2021 18.7324 42.4031V33.873H60Z" fill="url(#paint2_linear_1236_3353)"/>
<path d="M15.4118 0H36.2517C44.7634 0 51.6635 6.90012 51.6635 15.4118V26.3438C51.6635 34.8554 44.7634 41.7555 36.2517 41.7555H24.2903C24.078 41.7555 23.8863 41.8727 23.7798 42.0563C22.0579 45.0224 18.4733 47.1357 13.7657 48.3524C13.1836 48.5028 12.7928 47.778 13.2277 47.363C14.9863 45.6841 15.8501 44.0255 15.9953 42.4011C16.0262 42.0554 15.7589 41.7557 15.4118 41.7557C6.90012 41.7555 0 34.8554 0 26.3438V15.4118C0 6.90012 6.90012 0 15.4118 0Z" fill="url(#paint3_linear_1236_3353)"/>
<path d="M36.2517 0H23.5249V42.4603C23.6124 42.3268 23.7002 42.1934 23.7798 42.0563C23.8863 41.8726 24.078 41.7555 24.2903 41.7555H36.2517C44.7634 41.7555 51.6635 34.8554 51.6635 26.3438V15.4118C51.6635 6.90012 44.7634 0 36.2517 0Z" fill="url(#paint4_linear_1236_3353)"/>
<path d="M0 15.6641V26.343C0 34.8547 6.90012 41.7548 15.4118 41.7548C15.7589 41.7548 16.0261 42.0547 15.9953 42.4004C15.8501 44.0247 14.9863 45.6834 13.2277 47.3622C12.7928 47.7774 13.1836 48.5021 13.7657 48.3516C18.4733 47.135 22.0579 45.0216 23.7798 42.0555C23.8863 41.8719 24.078 41.7548 24.2903 41.7548H36.2517C44.7634 41.7548 51.6635 34.8547 51.6635 26.343V15.6641H0Z" fill="url(#paint5_linear_1236_3353)"/>
<path d="M47.6893 21.3613H31.043C24.2441 21.3613 18.7324 26.8729 18.7324 33.6719V42.4041C18.7324 43.7262 18.9417 44.9993 19.3275 46.193C21.2992 45.0807 22.8257 43.6996 23.7797 42.0564C23.8862 41.8728 24.0779 41.7557 24.2902 41.7557H36.2516C44.7633 41.7557 51.6634 34.8556 51.6634 26.3439V22.0172C50.4166 21.5922 49.08 21.3613 47.6893 21.3613Z" fill="url(#paint6_linear_1236_3353)"/>
<path d="M15.1568 8.23047L6.99609 24.0053L24.7458 41.755H36.252C39.7474 41.755 42.9704 40.5906 45.5561 38.6296L15.1568 8.23047Z" fill="url(#paint7_linear_1236_3353)"/>
<path d="M11.0014 25.6581C9.43271 25.6581 8.0983 25.107 6.99592 24.0045C5.89354 22.9021 5.34229 21.5918 5.34229 20.0725C5.34229 19.8772 5.37896 19.62 5.45256 19.3008C5.52603 18.9826 5.70979 18.4315 6.00381 17.6472C6.29771 16.864 6.75018 15.7363 7.36342 14.2664C7.97549 12.7964 8.82064 10.8121 9.899 8.31328C10.1436 7.77469 10.4744 7.41984 10.8912 7.24758C11.3069 7.07648 11.7112 6.99023 12.1039 6.99023C12.8871 6.99023 13.6955 7.23598 14.5293 7.72523C15.3619 8.21555 15.7788 8.92641 15.7788 9.85664C15.7788 10.2495 15.68 10.641 15.4847 11.0326L13.6474 15.0014C14.5293 15.5412 15.239 16.2394 15.7788 17.096C16.3174 17.9538 16.5871 18.9219 16.5871 19.9991C16.5871 21.5678 16.0474 22.9022 14.9703 24.0046C13.8918 25.1068 12.5689 25.6581 11.0014 25.6581ZM25.7006 25.6581C24.1319 25.6581 22.7975 25.107 21.695 24.0045C20.5926 22.9021 20.0413 21.5918 20.0413 20.0725C20.0413 19.8772 20.0781 19.62 20.1516 19.3008C20.2251 18.9826 20.4088 18.4315 20.7028 17.6472C20.9968 16.864 21.4492 15.7363 22.0624 14.2664C22.6744 12.7964 23.5197 10.8121 24.5981 8.31328C24.8426 7.77469 25.1733 7.41984 25.5902 7.24758C26.006 7.07648 26.4101 6.99023 26.8029 6.99023C27.5861 6.99023 28.3946 7.23598 29.2284 7.72523C30.0609 8.21555 30.4777 8.92641 30.4777 9.85664C30.4777 10.2495 30.379 10.641 30.1838 11.0326L28.3464 15.0014C29.2284 15.5412 29.9381 16.2394 30.4778 17.096C31.0164 17.9538 31.2863 18.9219 31.2863 19.9991C31.2863 21.5678 30.7465 22.9022 29.6695 24.0046C28.591 25.1068 27.2681 25.6581 25.7006 25.6581Z" fill="url(#paint8_linear_1236_3353)"/>
<path d="M42.8536 24.0293C43.8148 24.0293 44.6324 24.367 45.3078 25.0425C45.9833 25.718 46.3211 26.5208 46.3211 27.4516C46.3211 27.5713 46.2986 27.7289 46.2536 27.9245C46.2086 28.1194 46.0959 28.4571 45.9158 28.9377C45.7357 29.4176 45.4584 30.1085 45.0827 31.0092C44.7077 31.9099 44.1899 33.1257 43.5292 34.6568C43.3793 34.9868 43.1767 35.2042 42.9212 35.3098C42.6666 35.4146 42.4188 35.4674 42.1782 35.4674C41.6984 35.4674 41.203 35.3168 40.6922 35.017C40.1821 34.7166 39.9266 34.281 39.9266 33.7111C39.9266 33.4704 39.9871 33.2305 40.1067 32.9906L41.2325 30.5589C40.6922 30.2282 40.2573 29.8003 39.9266 29.2755C39.5966 28.75 39.4312 28.1568 39.4312 27.4968C39.4312 26.5356 39.762 25.718 40.422 25.0425C41.0827 24.367 41.8932 24.0293 42.8536 24.0293ZM33.8473 24.0293C34.8084 24.0293 35.6261 24.367 36.3015 25.0425C36.977 25.718 37.3147 26.5208 37.3147 27.4516C37.3147 27.5713 37.2922 27.7289 37.2471 27.9245C37.2021 28.1194 37.0895 28.4571 36.9094 28.9377C36.7293 29.4176 36.452 30.1085 36.0763 31.0092C35.7013 31.9099 35.1833 33.1257 34.5226 34.6568C34.3727 34.9868 34.1701 35.2042 33.9148 35.3098C33.66 35.4146 33.4124 35.4674 33.1717 35.4674C32.6918 35.4674 32.1964 35.3168 31.6856 35.017C31.1755 34.7166 30.9202 34.281 30.9202 33.7111C30.9202 33.4704 30.9806 33.2305 31.1003 32.9906L32.2261 30.5589C31.6857 30.2282 31.2509 29.8003 30.9202 29.2755C30.5902 28.75 30.4248 28.1568 30.4248 27.4968C30.4248 26.5356 30.7555 25.718 31.4155 25.0425C32.0762 24.367 32.8868 24.0293 33.8473 24.0293Z" fill="url(#paint9_linear_1236_3353)"/>
<path d="M51.3008 29.6758L29.8555 8.23047L21.6948 24.0053L39.1677 41.4782C45.201 40.3226 49.9838 35.65 51.3008 29.6758Z" fill="url(#paint10_linear_1236_3353)"/>
<path d="M25.7001 25.6581C24.1314 25.6581 22.797 25.107 21.6946 24.0045C20.5923 22.9021 20.041 21.5918 20.041 20.0725C20.041 19.8772 20.0777 19.62 20.1513 19.3008C20.2248 18.9826 20.4085 18.4315 20.7025 17.6472C20.9964 16.864 21.4489 15.7363 22.0621 14.2664C22.6742 12.7964 23.5194 10.8121 24.5977 8.31328C24.8423 7.77469 25.1731 7.41984 25.59 7.24758C26.0056 7.07648 26.4099 6.99023 26.8026 6.99023C27.5858 6.99023 28.3943 7.23598 29.228 7.72523C30.0607 8.21555 30.4775 8.92641 30.4775 9.85664C30.4775 10.2495 30.3787 10.641 30.1835 11.0326L28.3461 15.0014C29.228 15.5412 29.9377 16.2394 30.4775 17.096C31.0161 17.9538 31.2859 18.9219 31.2859 19.9991C31.2859 21.5678 30.7461 22.9022 29.669 24.0046C28.5907 25.1068 27.2677 25.6581 25.7001 25.6581Z" fill="url(#paint11_linear_1236_3353)"/>
</g>
<defs>
<linearGradient id="paint0_linear_1236_3353" x1="33.8163" y1="25.4869" x2="46.8286" y2="54.9145" gradientUnits="userSpaceOnUse">
<stop stop-color="#B3DAFE"/>
<stop offset="1" stop-color="#0182FC"/>
</linearGradient>
<linearGradient id="paint1_linear_1236_3353" x1="51.8598" y1="40.6806" x2="59.8723" y2="40.6806" gradientUnits="userSpaceOnUse">
<stop stop-color="#314DC9" stop-opacity="0"/>
<stop offset="0.2761" stop-color="#304BC4" stop-opacity="0.276"/>
<stop offset="0.5628" stop-color="#2B45B8" stop-opacity="0.563"/>
<stop offset="0.8535" stop-color="#243BA3" stop-opacity="0.854"/>
<stop offset="1" stop-color="#1F3596"/>
</linearGradient>
<linearGradient id="paint2_linear_1236_3353" x1="39.3663" y1="45.5091" x2="39.3663" y2="55.9909" gradientUnits="userSpaceOnUse">
<stop stop-color="#314DC9" stop-opacity="0"/>
<stop offset="0.2761" stop-color="#304BC4" stop-opacity="0.276"/>
<stop offset="0.5628" stop-color="#2B45B8" stop-opacity="0.563"/>
<stop offset="0.8535" stop-color="#243BA3" stop-opacity="0.854"/>
<stop offset="1" stop-color="#1F3596"/>
</linearGradient>
<linearGradient id="paint3_linear_1236_3353" x1="16.6665" y1="2.5473" x2="33.1341" y2="35.4823" gradientUnits="userSpaceOnUse">
<stop stop-color="#FEF0AE"/>
<stop offset="1" stop-color="#FAC600"/>
</linearGradient>
<linearGradient id="paint4_linear_1236_3353" x1="41.7342" y1="21.2302" x2="51.7647" y2="21.2302" gradientUnits="userSpaceOnUse">
<stop stop-color="#FE9738" stop-opacity="0"/>
<stop offset="1" stop-color="#FE9738"/>
</linearGradient>
<linearGradient id="paint5_linear_1236_3353" x1="25.8318" y1="30.2314" x2="25.8318" y2="43.3537" gradientUnits="userSpaceOnUse">
<stop stop-color="#FE9738" stop-opacity="0"/>
<stop offset="1" stop-color="#FE9738"/>
</linearGradient>
<linearGradient id="paint6_linear_1236_3353" x1="18.0526" y1="20.9225" x2="54.3088" y2="48.3235" gradientUnits="userSpaceOnUse">
<stop stop-color="#314DC9" stop-opacity="0"/>
<stop offset="0.2761" stop-color="#304BC4" stop-opacity="0.276"/>
<stop offset="0.5628" stop-color="#2B45B8" stop-opacity="0.563"/>
<stop offset="0.8535" stop-color="#243BA3" stop-opacity="0.854"/>
<stop offset="1" stop-color="#1F3596"/>
</linearGradient>
<linearGradient id="paint7_linear_1236_3353" x1="20.6914" y1="25.3367" x2="6.34605" y2="18.6692" gradientUnits="userSpaceOnUse">
<stop stop-color="#FE9738" stop-opacity="0"/>
<stop offset="1" stop-color="#FE9738"/>
</linearGradient>
<linearGradient id="paint8_linear_1236_3353" x1="14.6338" y1="9.59871" x2="21.4731" y2="21.6227" gradientUnits="userSpaceOnUse">
<stop stop-color="#F5FBFF"/>
<stop offset="1" stop-color="#D8ECFE"/>
</linearGradient>
<linearGradient id="paint9_linear_1236_3353" x1="36.7152" y1="24.6382" x2="39.7227" y2="33.7857" gradientUnits="userSpaceOnUse">
<stop stop-color="#F5FBFF"/>
<stop offset="1" stop-color="#D8ECFE"/>
</linearGradient>
<linearGradient id="paint10_linear_1236_3353" x1="32.1184" y1="23.742" x2="21.7948" y2="18.9436" gradientUnits="userSpaceOnUse">
<stop stop-color="#FE9738" stop-opacity="0"/>
<stop offset="1" stop-color="#FE9738"/>
</linearGradient>
<linearGradient id="paint11_linear_1236_3353" x1="23.197" y1="11.7329" x2="27.9727" y2="20.1291" gradientUnits="userSpaceOnUse">
<stop stop-color="#F5FBFF"/>
<stop offset="1" stop-color="#D8ECFE"/>
</linearGradient>
<clipPath id="clip0_1236_3353">
<rect width="60" height="60" fill="white"/>
</clipPath>
</defs>
</svg>
