<svg width="54" height="54" viewBox="0 0 54 54" fill="none" xmlns="http://www.w3.org/2000/svg">
<path fill-rule="evenodd" clip-rule="evenodd" d="M40.383 25.3125H40.617C42.6386 25.3123 44.3243 25.3123 45.6626 25.4923C47.0752 25.6822 48.3505 26.0998 49.3751 27.1247C50.4 28.1495 50.8178 29.4248 51.0077 30.8374C51.1877 32.1757 51.1875 33.8614 51.1875 35.883V36.1168C51.1875 38.1384 51.1877 39.8243 51.0077 41.1624C50.8178 42.575 50.4 43.8503 49.3751 44.8751C48.3505 45.9 47.0752 46.3176 45.6626 46.5075C44.3243 46.6875 42.6386 46.6875 40.617 46.6875H40.383C38.3614 46.6875 36.6757 46.6875 35.3374 46.5075C33.9248 46.3176 32.6495 45.9 31.6249 44.8751C30.6 43.8503 30.1822 42.575 29.9923 41.1624C29.8123 39.8243 29.8125 38.1384 29.8125 36.117V35.883C29.8125 33.8614 29.8123 32.1757 29.9923 30.8374C30.1822 29.4248 30.6 28.1495 31.6249 27.1247C32.6495 26.0998 33.9248 25.6822 35.3374 25.4923C36.6757 25.3123 38.3614 25.3123 40.383 25.3125ZM35.7872 28.8371C34.7488 28.9766 34.3044 29.2181 34.0112 29.5112C33.7181 29.8044 33.4768 30.2488 33.3371 31.2869C33.1911 32.3739 33.1875 33.8308 33.1875 36C33.1875 38.169 33.1911 39.6259 33.3371 40.7129C33.4768 41.751 33.7181 42.1954 34.0112 42.4886C34.3044 42.782 34.7488 43.0232 35.7872 43.1627C36.8739 43.3089 38.331 43.3125 40.5 43.3125C42.669 43.3125 44.1261 43.3089 45.2129 43.1627C46.2512 43.0232 46.6956 42.782 46.9888 42.4886C47.2819 42.1954 47.5232 41.751 47.6629 40.7129C47.8089 39.6259 47.8125 38.169 47.8125 36C47.8125 33.8308 47.8089 32.3739 47.6629 31.2869C47.5232 30.2488 47.2819 29.8044 46.9888 29.5112C46.6956 29.2181 46.2512 28.9766 45.2129 28.8371C44.1261 28.6909 42.669 28.6875 40.5 28.6875C38.331 28.6875 36.8739 28.6909 35.7872 28.8371Z" fill="black"/>
<path fill-rule="evenodd" clip-rule="evenodd" d="M46.611 8.49837C46.8884 9.38816 46.3919 10.3342 45.502 10.6115C38.2979 12.8566 33.1875 19.2497 33.1875 26.6914V36.0006C33.1875 36.9325 32.432 37.6881 31.5 37.6881C30.568 37.6881 29.8125 36.9325 29.8125 36.0006V26.6914C29.8125 17.6318 36.0227 10.0306 44.498 7.38937C45.3877 7.11208 46.3338 7.60861 46.611 8.49837Z" fill="black"/>
<path fill-rule="evenodd" clip-rule="evenodd" d="M13.383 25.3125H13.617C15.6386 25.3123 17.3243 25.3123 18.6626 25.4923C20.0751 25.6822 21.3504 26.0998 22.3752 27.1247C23.4 28.1495 23.8178 29.4248 24.0077 30.8374C24.1877 32.1757 24.1875 33.8614 24.1875 35.883V36.1168C24.1875 38.1384 24.1877 39.8243 24.0077 41.1624C23.8178 42.575 23.4 43.8503 22.3752 44.8751C21.3504 45.9 20.0751 46.3176 18.6626 46.5075C17.3243 46.6875 15.6386 46.6875 13.617 46.6875H13.383C11.3614 46.6875 9.6757 46.6875 8.33742 46.5075C6.9249 46.3176 5.6496 45.9 4.62479 44.8751C3.59998 43.8503 3.18222 42.575 2.9923 41.1624C2.81239 39.8243 2.81244 38.1384 2.8125 36.117V35.883C2.81244 33.8614 2.81239 32.1757 2.9923 30.8374C3.18222 29.4248 3.59998 28.1495 4.62479 27.1247C5.6496 26.0998 6.9249 25.6822 8.33742 25.4923C9.67568 25.3123 11.3614 25.3123 13.383 25.3125ZM8.78713 28.8371C7.74885 28.9766 7.30449 29.2181 7.01127 29.5112C6.71805 29.8044 6.47681 30.2488 6.33722 31.2869C6.1911 32.3739 6.1875 33.8308 6.1875 36C6.1875 38.169 6.1911 39.6259 6.33722 40.7129C6.47681 41.751 6.71805 42.1954 7.01127 42.4886C7.30449 42.782 7.74885 43.0232 8.78713 43.1627C9.87397 43.3089 11.331 43.3125 13.5 43.3125C15.669 43.3125 17.126 43.3089 18.2129 43.1627C19.2512 43.0232 19.6955 42.782 19.9888 42.4886C20.282 42.1954 20.5232 41.751 20.6628 40.7129C20.8089 39.6259 20.8125 38.169 20.8125 36C20.8125 33.8308 20.8089 32.3739 20.6628 31.2869C20.5232 30.2488 20.282 29.8044 19.9888 29.5112C19.6955 29.2181 19.2512 28.9766 18.2129 28.8371C17.126 28.6909 15.669 28.6875 13.5 28.6875C11.331 28.6875 9.87397 28.6909 8.78713 28.8371Z" fill="black"/>
<path fill-rule="evenodd" clip-rule="evenodd" d="M19.6111 8.49837C19.8884 9.38816 19.3919 10.3342 18.5021 10.6115C11.298 12.8566 6.1875 19.2497 6.1875 26.6914V36.0006C6.1875 36.9325 5.43199 37.6881 4.5 37.6881C3.56803 37.6881 2.8125 36.9325 2.8125 36.0006V26.6914C2.8125 17.6318 9.02273 10.0306 17.4979 7.38937C18.3877 7.11208 19.3338 7.60861 19.6111 8.49837Z" fill="black"/>
</svg>
