<svg width="40" height="40" viewBox="0 0 40 40" fill="none" xmlns="http://www.w3.org/2000/svg">
<g clip-path="url(#clip0_149_2841)">
<path d="M19.9999 0C8.95422 0 0 8.95422 0 19.9999C0 31.0455 8.95422 40.0001 19.9999 40.0001C31.0455 40.0001 40.0001 31.0455 40.0001 19.9999C39.9877 8.95935 31.0408 0.0124511 19.9999 0ZM19.9999 37.9999C10.0587 37.9999 1.99988 29.941 1.99988 19.9999C1.99988 10.0587 10.0587 1.99988 19.9999 1.99988C29.941 1.99988 37.9999 10.0587 37.9999 19.9999C37.9885 29.9363 29.9363 37.9885 19.9999 37.9999Z" fill="#989898"/>
<path d="M17.6588 12.2472C17.2428 11.8836 16.6111 11.9261 16.2474 12.3417C15.8842 12.7577 15.9266 13.3895 16.3423 13.7531L23.4819 19.9999L16.3419 26.2471C15.9259 26.6108 15.8838 27.2425 16.2471 27.6581C16.6107 28.0742 17.2424 28.1166 17.6584 27.753L25.6583 20.7529C25.8755 20.5632 26 20.2885 26 19.9999C26 19.7114 25.8755 19.4371 25.6583 19.247L17.6588 12.2472Z" fill="#989898"/>
</g>
<defs>
<clipPath id="clip0_149_2841">
<rect width="40" height="40" fill="white"/>
</clipPath>
</defs>
</svg>
