<svg width="15" height="9" viewBox="0 0 15 9" fill="none" xmlns="http://www.w3.org/2000/svg">
    <path d="M14.2101 1.21C14.1171 1.11627 14.0065 1.04188 13.8846 0.991107C13.7628 0.940338 13.6321 0.9142 13.5001 0.9142C13.368 0.9142 13.2373 0.940338 13.1155 0.991107C12.9936 1.04188 12.883 1.11627 12.7901 1.21L8.21006 5.79C8.1171 5.88373 8.0065 5.95812 7.88464 6.00889C7.76278 6.05966 7.63207 6.0858 7.50006 6.0858C7.36805 6.0858 7.23734 6.05966 7.11548 6.00889C6.99362 5.95812 6.88302 5.88373 6.79006 5.79L2.21006 1.21C2.1171 1.11627 2.0065 1.04188 1.88464 0.991107C1.76278 0.940338 1.63207 0.9142 1.50006 0.9142C1.36805 0.9142 1.23734 0.940338 1.11548 0.991107C0.993624 1.04188 0.883023 1.11627 0.79006 1.21C0.603809 1.39736 0.499268 1.65081 0.499268 1.915C0.499268 2.17918 0.603809 2.43264 0.79006 2.62L5.38006 7.21C5.94256 7.7718 6.70506 8.08736 7.50006 8.08736C8.29506 8.08736 9.05756 7.7718 9.62006 7.21L14.2101 2.62C14.3963 2.43264 14.5009 2.17918 14.5009 1.915C14.5009 1.65081 14.3963 1.39736 14.2101 1.21Z" fill="black"/>
</svg>